<mxfile host="app.diagrams.net" modified="2022-08-04T03:42:00.580Z" agent="5.0 (Macintosh; Intel Mac OS X 10_15_7) AppleWebKit/537.36 (KHTML, like Gecko) Chrome/103.0.0.0 Safari/537.36" etag="YqlApwxsVAwDZC_Vdc-p" version="20.2.2" type="github">
  <diagram id="tx-EgkOs6txUjuiGDX3E" name="Page-1">
    <mxGraphModel dx="586" dy="809" grid="0" gridSize="10" guides="1" tooltips="1" connect="1" arrows="1" fold="1" page="0" pageScale="1" pageWidth="827" pageHeight="1169" math="0" shadow="0">
      <root>
        <mxCell id="0" />
        <mxCell id="1" parent="0" />
        <mxCell id="HzaMs9VLNogWFWMUmDYU-2" value="setup route" style="rounded=1;whiteSpace=wrap;html=1;" parent="1" vertex="1">
          <mxGeometry x="198" y="93" width="120" height="60" as="geometry" />
        </mxCell>
        <mxCell id="HzaMs9VLNogWFWMUmDYU-3" value="export loader&lt;br&gt;useLoader()" style="rounded=1;whiteSpace=wrap;html=1;" parent="1" vertex="1">
          <mxGeometry x="198" y="213" width="120" height="60" as="geometry" />
        </mxCell>
        <mxCell id="HzaMs9VLNogWFWMUmDYU-4" value="type-safety" style="rounded=1;whiteSpace=wrap;html=1;" parent="1" vertex="1">
          <mxGeometry x="198" y="330" width="120" height="60" as="geometry" />
        </mxCell>
        <mxCell id="HzaMs9VLNogWFWMUmDYU-5" value="prisma db setup or connect to any&lt;br&gt;&amp;nbsp;DB of your choice" style="rounded=1;whiteSpace=wrap;html=1;verticalAlign=top;" parent="1" vertex="1">
          <mxGeometry x="120" y="441" width="292" height="216" as="geometry" />
        </mxCell>
        <mxCell id="HzaMs9VLNogWFWMUmDYU-6" value="prisma.schema&lt;br&gt;&lt;br&gt;setup schema &amp;amp;&lt;br&gt;&lt;br&gt;npx prisma db push" style="rounded=1;whiteSpace=wrap;html=1;verticalAlign=top;" parent="1" vertex="1">
          <mxGeometry x="143" y="505.5" width="114" height="87" as="geometry" />
        </mxCell>
        <mxCell id="HzaMs9VLNogWFWMUmDYU-7" value="seed&lt;br&gt;&lt;br&gt;" style="rounded=1;whiteSpace=wrap;html=1;verticalAlign=top;" parent="1" vertex="1">
          <mxGeometry x="273" y="505.5" width="114" height="87" as="geometry" />
        </mxCell>
        <mxCell id="o5Oh8O8AWM55JMCWAWM5-1" value="refactor&lt;br&gt;so that we send avoid data-overfetching" style="rounded=1;whiteSpace=wrap;html=1;verticalAlign=top;" parent="1" vertex="1">
          <mxGeometry x="194.5" y="709" width="127" height="64" as="geometry" />
        </mxCell>
        <mxCell id="122XdRqf02ET5fMc67Rw-1" value="dynamic routing&lt;br&gt;with $&amp;lt;param&amp;gt;&amp;nbsp;&lt;br&gt;for ex $slug.tsx" style="rounded=1;whiteSpace=wrap;html=1;verticalAlign=top;" vertex="1" parent="1">
          <mxGeometry x="194.5" y="824" width="127" height="64" as="geometry" />
        </mxCell>
      </root>
    </mxGraphModel>
  </diagram>
</mxfile>
